<?xml version="1.0" encoding="UTF-8"?>
<svg version="1.1" xmlns="http://www.w3.org/2000/svg" width="96" height="96">
<path d="M0 0 C0.66 0 1.32 0 2 0 C2.309375 1.134375 2.61875 2.26875 2.9375 3.4375 C3.62924531 6.78775099 3.62924531 6.78775099 5 8 C6.97619447 8.12514928 8.95738173 8.1757276 10.9375 8.1875 C12.01902344 8.20167969 13.10054687 8.21585938 14.21484375 8.23046875 C17.14044315 8.29048031 17.14044315 8.29048031 19 6 C21.03125 5.74121094 21.03125 5.74121094 23.5 5.734375 C24.386875 5.73179688 25.27375 5.72921875 26.1875 5.7265625 C27.115625 5.73429688 28.04375 5.74203125 29 5.75 C29.928125 5.74226562 30.85625 5.73453125 31.8125 5.7265625 C33.1428125 5.73042969 33.1428125 5.73042969 34.5 5.734375 C35.3146875 5.73663086 36.129375 5.73888672 36.96875 5.74121094 C39 6 39 6 41 8 C43.82739532 8.35801271 43.82739532 8.35801271 47 8.3125 C48.60875 8.33763672 48.60875 8.33763672 50.25 8.36328125 C51.1575 8.24339844 52.065 8.12351562 53 8 C54.9451 5.08235 55.45276317 3.37462715 56 0 C56.66 0 57.32 0 58 0 C58.90839578 8.66340419 58.90839578 8.66340419 56.83984375 11.70703125 C53.90072538 14.19513402 50.64437452 15.82093766 47 17 C50.60992379 16.34414811 50.60992379 16.34414811 54 15 C59.28910111 14.59746664 64.21290155 14.44688083 69 17 C69.4375 19.125 69.4375 19.125 69 22 C66.57154905 25.1710965 63.83064658 27.61583147 59.859375 28.44921875 C56.09985527 28.53972571 54.1499609 28.09997393 51 26 C50.814375 27.5159375 50.814375 27.5159375 50.625 29.0625 C50.13971036 32.11982473 49.48135088 34.90408349 48.61523438 37.86108398 C47.31351983 42.38660824 46.13570951 46.94622078 44.9375 51.5 C44.5343457 53.01013672 44.5343457 53.01013672 44.12304688 54.55078125 C42.22191983 61.78549416 40.81645427 68.47462521 41 76 C40.34 76 39.68 76 39 76 C39 77.32 39 78.64 39 80 C32.4 80 25.8 80 19 80 C19 78.68 19 77.36 19 76 C18.34 76 17.68 76 17 76 C17.03262939 75.39849121 17.06525879 74.79698242 17.09887695 74.17724609 C17.30201606 67.49751649 16.18604866 61.96890909 14.1875 55.625 C13.63410372 53.78164365 13.08201164 51.93789525 12.53125 50.09375 C12.26570313 49.2171875 12.00015625 48.340625 11.7265625 47.4375 C9.62445054 40.38525343 7.83146033 33.31685088 7 26 C6.01 26.66 5.02 27.32 4 28 C-0.0130452 28.53507269 -2.52115137 28.8311574 -6.078125 26.83203125 C-9.12692469 24.42149653 -10.83993255 23.05187181 -11.4375 19.125 C-11.293125 18.42375 -11.14875 17.7225 -11 17 C-6.27905982 14.48216524 -1.22788162 14.39746449 4 15 C4.99 15.66 5.98 16.32 7 17 C8.32 17 9.64 17 11 17 C10.18595703 16.61908203 10.18595703 16.61908203 9.35546875 16.23046875 C8.64003906 15.88628906 7.92460937 15.54210938 7.1875 15.1875 C6.47980469 14.85105469 5.77210937 14.51460937 5.04296875 14.16796875 C2.88461005 12.93403137 1.4826065 12.00151877 0 10 C-0.29296875 7.51953125 -0.29296875 7.51953125 -0.1875 4.8125 C-0.16042969 3.91144531 -0.13335937 3.01039062 -0.10546875 2.08203125 C-0.07066406 1.39496094 -0.03585938 0.70789062 0 0 Z " fill="#CDD6D9" transform="translate(19,8)"/>
<path d="M0 0 C3.125 1 3.125 1 5 2 C5.4375 4.125 5.4375 4.125 5 7 C2.57154905 10.1710965 -0.16935342 12.61583147 -4.140625 13.44921875 C-7.90014473 13.53972571 -9.8500391 13.09997393 -13 11 C-13.12375 12.010625 -13.2475 13.02125 -13.375 14.0625 C-13.86008549 17.11853857 -14.52226357 19.8932869 -15.38916016 22.84790039 C-16.11712112 25.41263895 -16.77875006 27.99083905 -17.4375 30.57421875 C-17.69273438 31.57130859 -17.94796875 32.56839844 -18.2109375 33.59570312 C-18.73978753 35.66790509 -19.26580047 37.74083306 -19.7890625 39.81445312 C-20.04429688 40.80767578 -20.29953125 41.80089844 -20.5625 42.82421875 C-20.79066406 43.72229248 -21.01882812 44.62036621 -21.25390625 45.5456543 C-21.95982671 47.86784618 -22.84436716 49.87131687 -24 52 C-29.97327759 43.04008362 -30.1972316 30.45122129 -29 20 C-28.103387 16.3537738 -26.84696508 13.26045876 -25 10 C-24.64164063 9.36191406 -24.28328125 8.72382813 -23.9140625 8.06640625 C-22.875 6.375 -22.875 6.375 -21 4 C-20.34 4 -19.68 4 -19 4 C-19.33 3.01 -19.66 2.02 -20 1 C-18.906875 1.20625 -17.81375 1.4125 -16.6875 1.625 C-11.23064748 2.17993415 -6.1798897 -0.51171061 0 0 Z " fill="#7A584C" transform="translate(83,23)"/>
<path d="M0 0 C0.99 0.66 1.98 1.32 3 2 C6.63939932 1.68269476 6.63939932 1.68269476 10 1 C10.12375 1.8353125 10.12375 1.8353125 10.25 2.6875 C10.8666946 5.12767479 10.8666946 5.12767479 12.8125 7 C18.60268977 14.94083168 20.00715371 24.40241754 19 34 C16.87788677 46.89487912 16.87788677 46.89487912 14 52 C10.93903977 45.66792407 9.48218491 39.15098997 7.9375 32.3125 C7.43038356 30.07837743 6.91884407 27.84525306 6.40234375 25.61328125 C6.18054443 24.63141846 5.95874512 23.64955566 5.73022461 22.63793945 C5.05613344 20.20278227 4.13286991 18.24199434 3 16 C2.875 13.25 2.875 13.25 3 11 C2.01 11.66 1.02 12.32 0 13 C-4.0130452 13.53507269 -6.52115137 13.8311574 -10.078125 11.83203125 C-13.12692469 9.42149653 -14.83993255 8.05187181 -15.4375 4.125 C-15.293125 3.42375 -15.14875 2.7225 -15 2 C-10.27905982 -0.51783476 -5.22788162 -0.60253551 0 0 Z " fill="#7B594C" transform="translate(23,23)"/>
<path d="M0 0 C0.33 0.99 0.66 1.98 1 3 C6.28 3 11.56 3 17 3 C17.33 2.34 17.66 1.68 18 1 C21.44419134 11.37357631 21.44419134 11.37357631 21 17 C20.34 17 19.68 17 19 17 C19 18.32 19 19.64 19 21 C12.4 21 5.8 21 -1 21 C-1 19.68 -1 18.36 -1 17 C-1.66 17 -2.32 17 -3 17 C-2.48517081 11.147205 -1.54642808 5.6702363 0 0 Z " fill="#A5B3BA" transform="translate(39,67)"/>
<path d="M0 0 C0.99 0.66 1.98 1.32 3 2 C6.63939932 1.68269476 6.63939932 1.68269476 10 1 C8.35 4.3 6.7 7.6 5 11 C6.32 11.66 7.64 12.32 9 13 C9 14.65 9 16.3 9 18 C7.68 18.33 6.36 18.66 5 19 C2.8480563 15.77208445 2.79913557 14.71599191 3 11 C2.01 11.66 1.02 12.32 0 13 C-4.0130452 13.53507269 -6.52115137 13.8311574 -10.078125 11.83203125 C-13.12692469 9.42149653 -14.83993255 8.05187181 -15.4375 4.125 C-15.293125 3.42375 -15.14875 2.7225 -15 2 C-10.27905982 -0.51783476 -5.22788162 -0.60253551 0 0 Z " fill="#5C3F36" transform="translate(23,23)"/>
<path d="M0 0 C3.125 1 3.125 1 5 2 C5.4375 4.125 5.4375 4.125 5 7 C2.57154905 10.1710965 -0.16935342 12.61583147 -4.140625 13.44921875 C-7.90014473 13.53972571 -9.8500391 13.09997393 -13 11 C-13.33 13.31 -13.66 15.62 -14 18 C-14.99 18.33 -15.98 18.66 -17 19 C-17.66 18.67 -18.32 18.34 -19 18 C-19 16.35 -19 14.7 -19 13 C-17.68 12.34 -16.36 11.68 -15 11 C-15.45375 10.0925 -15.9075 9.185 -16.375 8.25 C-17.58333333 5.83333333 -18.79166667 3.41666667 -20 1 C-18.906875 1.20625 -17.81375 1.4125 -16.6875 1.625 C-11.23064748 2.17993415 -6.1798897 -0.51171061 0 0 Z " fill="#5C3F36" transform="translate(83,23)"/>
<path d="M0 0 C0.66 0 1.32 0 2 0 C2.35671569 3.40201076 2.48776505 6.60640059 2 10 C-1.19848217 13.91814066 -3.41392207 15.1416069 -8.375 15.8125 C-10.169375 15.9053125 -10.169375 15.9053125 -12 16 C-15 11.25 -15 11.25 -15 9 C-14.15695313 8.96261719 -13.31390625 8.92523438 -12.4453125 8.88671875 C-10.80175781 8.78810547 -10.80175781 8.78810547 -9.125 8.6875 C-8.03445312 8.62949219 -6.94390625 8.57148438 -5.8203125 8.51171875 C-4.88960937 8.34285156 -3.95890625 8.17398437 -3 8 C-1.0549 5.08235 -0.54723683 3.37462715 0 0 Z " fill="#FED54F" transform="translate(75,8)"/>
<path d="M0 0 C0.66 0 1.32 0 2 0 C2.309375 1.134375 2.61875 2.26875 2.9375 3.4375 C3.62924531 6.78775099 3.62924531 6.78775099 5 8 C7.01594582 8.23427778 9.038474 8.41336124 11.0625 8.5625 C12.16722656 8.64628906 13.27195312 8.73007812 14.41015625 8.81640625 C15.69212891 8.90728516 15.69212891 8.90728516 17 9 C16.34 10.98 15.68 12.96 15 15 C11.4602172 16.1799276 9.98049156 15.99327295 6.375 14.75 C1.80600751 12.38089278 1.80600751 12.38089278 0 10 C-0.29296875 7.51953125 -0.29296875 7.51953125 -0.1875 4.8125 C-0.16042969 3.91144531 -0.13335938 3.01039062 -0.10546875 2.08203125 C-0.07066406 1.39496094 -0.03585938 0.70789062 0 0 Z " fill="#FED54F" transform="translate(19,8)"/>
<path d="M0 0 C6.6 0 13.2 0 20 0 C20 1.32 20 2.64 20 4 C13.4 4 6.8 4 0 4 C0 2.68 0 1.36 0 0 Z " fill="#778F9B" transform="translate(38,84)"/>
<path d="M0 0 C3.875 0.875 3.875 0.875 5 2 C5.04063832 3.66617115 5.042721 5.33388095 5 7 C3.68 7.33 2.36 7.66 1 8 C-1 5 -1 5 -0.625 2.3125 C-0.41875 1.549375 -0.2125 0.78625 0 0 Z " fill="#283137" transform="translate(27,34)"/>
<path d="M0 0 C0.99 0 1.98 0 3 0 C3.625 2.3125 3.625 2.3125 4 5 C3.01 6.485 3.01 6.485 2 8 C0.68 7.67 -0.64 7.34 -2 7 C-2.125 4.625 -2.125 4.625 -2 2 C-1.34 1.34 -0.68 0.68 0 0 Z " fill="#273439" transform="translate(66,34)"/>
</svg>
