<?xml version="1.0" standalone="no"?>
<!DOCTYPE svg PUBLIC "-//W3C//DTD SVG 20010904//EN"
 "http://www.w3.org/TR/2001/REC-SVG-20010904/DTD/svg10.dtd">
<svg version="1.0" xmlns="http://www.w3.org/2000/svg"
 width="100.000000pt" height="100.000000pt" viewBox="0 0 100.000000 100.000000"
 preserveAspectRatio="xMidYMid meet">

<g transform="translate(0.000000,100.000000) scale(0.100000,-0.100000)"
fill="#000000" stroke="none">
<path d="M205 969 c-9 -14 4 -98 20 -129 7 -14 22 -34 34 -44 29 -27 17 -37
-24 -20 -48 20 -152 18 -195 -4 -29 -14 -35 -22 -33 -46 5 -64 95 -118 165
-98 l36 10 -5 -57 c-7 -75 16 -154 73 -252 40 -68 43 -78 34 -110 -17 -60 -12
-105 16 -138 67 -80 281 -80 348 0 28 33 33 78 16 138 -9 32 -6 42 34 110 57
98 80 177 73 252 l-5 57 36 -10 c70 -20 160 34 165 98 2 24 -4 32 -33 46 -43
22 -147 24 -195 4 -41 -17 -53 -7 -24 20 31 28 47 64 55 121 9 70 -8 77 -55
24 -60 -68 -129 -81 -173 -31 -21 24 -34 30 -68 30 -34 0 -47 -6 -68 -30 -44
-50 -125 -34 -177 34 -29 38 -39 43 -50 25z m349 -108 c25 -39 54 -65 116
-104 68 -43 103 -161 80 -270 -8 -43 -69 -165 -97 -197 -3 -3 -16 8 -29 23
-18 22 -24 40 -24 77 0 47 2 51 40 75 21 13 44 33 50 44 13 25 13 76 -1 124
-9 32 -18 42 -54 58 -94 42 -193 41 -277 -2 -40 -20 -58 -60 -58 -127 0 -45
14 -68 60 -97 38 -24 40 -28 40 -75 0 -37 -6 -55 -24 -77 -13 -15 -26 -26 -29
-23 -2 3 -23 36 -45 74 -97 162 -77 325 50 408 31 21 71 58 88 83 25 36 37 45
60 45 24 0 35 -8 54 -39z m-208 -19 l36 -7 -25 -14 c-35 -19 -69 -8 -91 29
l-18 32 31 -16 c17 -9 47 -20 67 -24z m398 26 c-31 -55 -72 -71 -108 -43 -19
15 -19 15 5 15 13 0 42 9 64 19 50 24 48 24 39 9z m-513 -135 c35 -35 -63 -84
-127 -63 -48 16 -72 63 -36 74 30 8 151 1 163 -11z m714 5 c15 -15 -9 -51 -43
-65 -56 -23 -142 8 -142 52 0 21 165 33 185 13z m-347 -75 c48 -17 62 -40 62
-102 0 -33 -4 -40 -40 -60 -59 -33 -71 -56 -64 -116 8 -61 27 -100 58 -121 25
-16 46 -61 46 -99 0 -18 -5 -21 -23 -18 -31 6 -77 -32 -77 -63 0 -23 -3 -24
-60 -24 -57 0 -60 1 -60 24 0 31 -46 69 -77 63 -18 -3 -23 0 -23 18 0 38 21
83 46 99 32 22 50 60 57 122 7 61 -5 83 -63 115 -36 20 -40 27 -40 60 0 62 14
85 62 103 76 27 117 27 196 -1z m-203 -564 c12 -19 -5 -23 -22 -6 -16 16 -16
17 -1 17 9 0 20 -5 23 -11z m232 -6 c-9 -9 -19 -14 -23 -11 -10 10 6 28 24 28
15 0 15 -1 -1 -17z"/>
</g>
</svg>
